# xmcd
#
# Track frame offsets: 
#        150
#        20095
#        41042
#        62997
#        81995
#        102747
#        125450
#        148730
#        171150
#        194925
#        214637
#
# Disc length: 3165 seconds
#
# Revision: 2
# Processed by: cddbd v1.5.2PL0 Copyright (c) Steve Scherf et al.
# Submitted via: ExactAudioCopy v1.3
#
DISCID=b20c5b0b
DTITLE=Grady Harrell - Romance Me
DYEAR=1990
DGENRE=Funk
TTITLE0=Patience
TTITLE1=Wanna Be With You
TTITLE2=Faithful
TTITLE3=Don't Stay Away Too Long
TTITLE4=Baby Love
TTITLE5=Your Kiss
TTITLE6=Don't Turn Your Back On Me(East Coast)
TTITLE7=Romance Me
TTITLE8=Your Love Is Good To Me
TTITLE9=Boomerang
TTITLE10=Don't Turn Your Back On Me(West Coast)
EXTD=
EXTT0=
EXTT1=
EXTT2=
EXTT3=
EXTT4=
EXTT5=
EXTT6=
EXTT7=
EXTT8=
EXTT9=
EXTT10=
PLAYORDER=
